<svg xmlns="http://www.w3.org/2000/svg" viewBox="0 0 1280 720" role="img" aria-labelledby="title desc">
  <title id="title">think-tank hero visual</title>
  <desc id="desc">Protocol-first AI collaboration skill overview.</desc>
  <rect width="1280" height="720" fill="#f8fbff"/>
  <defs>
    <linearGradient id="panel" x1="0" x2="1" y1="0" y2="1">
      <stop offset="0" stop-color="#ffffff"/>
      <stop offset="1" stop-color="#eef7f6"/>
    </linearGradient>
    <filter id="shadow" x="-20%" y="-20%" width="140%" height="140%">
      <feDropShadow dx="0" dy="16" stdDeviation="18" flood-color="#174152" flood-opacity="0.16"/>
    </filter>
  </defs>
  <rect x="70" y="62" width="1140" height="596" rx="28" fill="url(#panel)" stroke="#d8e8ec" filter="url(#shadow)"/>
  <text x="120" y="150" font-family="Inter, Arial, sans-serif" font-size="66" font-weight="800" fill="#102a43">think-tank</text>
  <text x="122" y="195" font-family="Inter, Arial, sans-serif" font-size="24" fill="#486581">Protocol-first AI collaboration skill</text>
  <g font-family="Inter, Arial, sans-serif" font-size="20" font-weight="700">
    <rect x="122" y="285" width="190" height="76" rx="18" fill="#e7f0ff" stroke="#bcd4ff"/>
    <text x="154" y="331" fill="#163b73">User Request</text>
    <rect x="390" y="252" width="150" height="64" rx="16" fill="#ffffff" stroke="#bdd7d5"/>
    <text x="434" y="292" fill="#174152">Intent</text>
    <rect x="570" y="252" width="150" height="64" rx="16" fill="#ffffff" stroke="#bdd7d5"/>
    <text x="614" y="292" fill="#174152">Mode</text>
    <rect x="750" y="252" width="150" height="64" rx="16" fill="#ffffff" stroke="#bdd7d5"/>
    <text x="789" y="292" fill="#174152">Roles</text>
    <rect x="390" y="374" width="150" height="64" rx="16" fill="#ffffff" stroke="#bdd7d5"/>
    <text x="418" y="414" fill="#174152">Routing</text>
    <rect x="570" y="374" width="150" height="64" rx="16" fill="#ffffff" stroke="#bdd7d5"/>
    <text x="594" y="414" fill="#174152">Evidence</text>
    <rect x="750" y="374" width="180" height="64" rx="16" fill="#fff7ed" stroke="#fed7aa"/>
    <text x="778" y="414" fill="#9a3412">Boundaries</text>
    <rect x="1000" y="300" width="170" height="104" rx="20" fill="#dff7ed" stroke="#9ae6b4"/>
    <text x="1045" y="343" fill="#14532d">Decision</text>
    <text x="1030" y="374" fill="#14532d">Output</text>
  </g>
  <g stroke="#8aa6b2" stroke-width="4" fill="none" stroke-linecap="round">
    <path d="M312 323 C348 323 354 284 390 284"/>
    <path d="M540 284 H570"/>
    <path d="M720 284 H750"/>
    <path d="M825 316 C825 345 465 345 465 374"/>
    <path d="M540 406 H570"/>
    <path d="M720 406 H750"/>
    <path d="M930 406 C960 406 960 352 1000 352"/>
  </g>
  <g font-family="Inter, Arial, sans-serif" font-size="16" font-weight="700">
    <text x="126" y="535" fill="#486581">Optional providers connect outside the core:</text>
    <rect x="126" y="558" width="105" height="34" rx="17" fill="#ffffff" stroke="#d8e8ec"/>
    <text x="151" y="580" fill="#334e68">web</text>
    <rect x="244" y="558" width="124" height="34" rx="17" fill="#ffffff" stroke="#d8e8ec"/>
    <text x="267" y="580" fill="#334e68">browser</text>
    <rect x="382" y="558" width="124" height="34" rx="17" fill="#ffffff" stroke="#d8e8ec"/>
    <text x="405" y="580" fill="#334e68">obsidian</text>
    <rect x="520" y="558" width="98" height="34" rx="17" fill="#ffffff" stroke="#d8e8ec"/>
    <text x="543" y="580" fill="#334e68">yt-dlp</text>
    <rect x="632" y="558" width="146" height="34" rx="17" fill="#ffffff" stroke="#d8e8ec"/>
    <text x="657" y="580" fill="#334e68">xiaohongshu</text>
    <text x="838" y="579" fill="#9a3412">selected is not invoked</text>
  </g>
</svg>
