<svg xmlns="http://www.w3.org/2000/svg" viewBox="0 0 1200 420" role="img" aria-labelledby="title desc">
  <title id="title">think-tank runtime flow</title>
  <desc id="desc">User request to structured output flow.</desc>
  <rect width="1200" height="420" fill="#fbfdff"/>
  <g font-family="Inter, Arial, sans-serif" font-size="18" font-weight="700">
    <g fill="#ffffff" stroke="#c9dce3" stroke-width="2">
      <rect x="40" y="150" width="150" height="78" rx="18"/>
      <rect x="245" y="95" width="150" height="78" rx="18"/>
      <rect x="245" y="205" width="150" height="78" rx="18"/>
      <rect x="450" y="150" width="170" height="78" rx="18"/>
      <rect x="675" y="95" width="180" height="78" rx="18"/>
      <rect x="675" y="205" width="180" height="78" rx="18"/>
      <rect x="910" y="150" width="230" height="78" rx="18"/>
    </g>
    <text x="72" y="195" fill="#102a43">Request</text>
    <text x="286" y="141" fill="#102a43">Intent</text>
    <text x="289" y="251" fill="#102a43">Mode</text>
    <text x="487" y="195" fill="#102a43">Profiles</text>
    <text x="711" y="141" fill="#102a43">Capabilities</text>
    <text x="716" y="251" fill="#9a3412">Boundary</text>
    <text x="964" y="195" fill="#14532d">Evidence Output</text>
  </g>
  <g stroke="#6b8794" stroke-width="4" fill="none" stroke-linecap="round" stroke-linejoin="round">
    <path d="M190 189 C220 189 220 134 245 134"/>
    <path d="M190 189 C220 189 220 244 245 244"/>
    <path d="M395 134 C425 134 425 189 450 189"/>
    <path d="M395 244 C425 244 425 189 450 189"/>
    <path d="M620 189 C650 189 650 134 675 134"/>
    <path d="M620 189 C650 189 650 244 675 244"/>
    <path d="M855 134 C885 134 885 189 910 189"/>
    <path d="M855 244 C885 244 885 189 910 189"/>
  </g>
  <text x="42" y="340" font-family="Inter, Arial, sans-serif" font-size="18" fill="#486581">Every output must disclose runtime provenance, invoked providers, not-invoked providers, and verification status.</text>
</svg>
